<?xml version="1.0" encoding="UTF-8" standalone="no"?>
<svg width="512px" height="512px" viewBox="0 0 512 512" version="1.1" xmlns="http://www.w3.org/2000/svg" xmlns:xlink="http://www.w3.org/1999/xlink" xmlns:sketch="http://www.bohemiancoding.com/sketch/ns">
    <!-- Generator: Sketch 3.4.4 (17249) - http://www.bohemiancoding.com/sketch -->
    <title>Color-Square</title>
    <desc>Created with Sketch.</desc>
    <defs></defs>
    <g id="Page-1" stroke="none" stroke-width="1" fill="none" fill-rule="evenodd" sketch:type="MSPage">
        <g id="Color-Square" sketch:type="MSArtboardGroup">
            <path d="M55,447 L55,361.625 L140.375,361.625 L140.375,447 L55,447 Z M353.8125,447 L353.8125,361.625 L439.1875,361.625 L439.1875,447 L353.8125,447 Z M55,318.9375 L55,62.8125 L140.375,62.8125 L140.375,105.5 L247.09375,212.21875 L353.8125,105.5 L353.8125,62.8125 L439.1875,62.8125 L439.1875,318.9375 L353.8125,318.9375 L353.8125,190.875 L268.4375,276.25 L225.75,276.25 L140.375,190.875 L140.375,318.9375 L55,318.9375 Z" id="M" fill="#D0011B" sketch:type="MSShapeGroup"></path>
            <path d="M259.833333,447 L259.833333,427.888889 L288.5,427.888889 L288.5,447 L259.833333,447 Z M202.5,447 L202.5,418.333333 L221.611111,418.333333 L221.611111,427.888889 L250.277778,427.888889 L250.277778,447 L202.5,447 Z M202.5,399.222222 L202.5,361 L250.277778,361 L250.277778,380.111111 L221.611111,380.111111 L221.611111,399.222222 L202.5,399.222222 Z M259.833333,380.111111 L259.833333,361 L288.5,361 L288.5,380.111111 L259.833333,380.111111 Z" id="Path" fill="#000000" sketch:type="MSShapeGroup"></path>
        </g>
    </g>
</svg>