<?xml version="1.0" encoding="UTF-8" standalone="no"?>
<svg width="363px" height="140px" viewBox="0 0 363 140" version="1.1" xmlns="http://www.w3.org/2000/svg" xmlns:xlink="http://www.w3.org/1999/xlink" xmlns:sketch="http://www.bohemiancoding.com/sketch/ns">
    <!-- Generator: Sketch 3.4.2 (15855) - http://www.bohemiancoding.com/sketch -->
    <title>Inverse-Color-Rectangle</title>
    <desc>Created with Sketch.</desc>
    <defs></defs>
    <g id="Page-1" stroke="none" stroke-width="1" fill="none" fill-rule="evenodd" sketch:type="MSPage">
        <g id="Inverse-Color-Rectangle" sketch:type="MSArtboardGroup">
            <path d="M0,84 L0,65.375 L18.625,65.375 L18.625,84 L0,84 Z M65.1875,84 L65.1875,65.375 L83.8125,65.375 L83.8125,84 L65.1875,84 Z M0,56.0625 L0,0.1875 L18.625,0.1875 L18.625,9.5 L41.90625,32.78125 L65.1875,9.5 L65.1875,0.1875 L83.8125,0.1875 L83.8125,56.0625 L65.1875,56.0625 L65.1875,28.125 L46.5625,46.75 L37.25,46.75 L18.625,28.125 L18.625,56.0625 L0,56.0625 Z M93.125,84 L93.125,65.375 L111.75,65.375 L111.75,84 L93.125,84 Z M93.125,28.125 L93.125,0.1875 L111.75,0.1875 L111.75,28.125 L93.125,28.125 Z M158.3125,84 L158.3125,56.0625 L93.125,56.0625 L93.125,37.4375 L158.3125,37.4375 L158.3125,23.46875 L121.0625,23.46875 L121.0625,0.1875 L176.9375,0.1875 L176.9375,84 L158.3125,84 Z M251.4375,84 L251.4375,65.375 L270.0625,65.375 L270.0625,84 L251.4375,84 Z M186.25,84 L186.25,37.4375 L204.875,37.4375 L204.875,84 L186.25,84 Z M214.1875,56.0625 L214.1875,37.4375 L260.75,37.4375 L270.0625,46.75 L270.0625,56.0625 L214.1875,56.0625 Z M186.25,28.125 L186.25,0.1875 L204.875,0.1875 L204.875,28.125 L186.25,28.125 Z M251.4375,28.125 L251.4375,18.8125 L214.1875,18.8125 L214.1875,0.1875 L270.0625,0.1875 L270.0625,28.125 L251.4375,28.125 Z M279.375,84 L279.375,0.1875 L298,0.1875 L298,84 L279.375,84 Z M344.5625,84 L325.9375,65.375 L316.625,65.375 L316.625,28.125 L344.5625,0.1875 L363.1875,0.1875 L363.1875,9.5 L335.25,37.4375 L335.25,46.75 L363.1875,74.6875 L363.1875,84 L344.5625,84 Z" id="mark" fill="#ED1E37" sketch:type="MSShapeGroup"></path>
            <path d="M31.5652174,140.048913 L31.5652174,129.527174 L47.3478261,129.527174 L47.3478261,140.048913 L31.5652174,140.048913 Z M0,140.048913 L0,124.266304 L10.5217391,124.266304 L10.5217391,129.527174 L26.3043478,129.527174 L26.3043478,140.048913 L0,140.048913 Z M0,113.744565 L0,92.701087 L26.3043478,92.701087 L26.3043478,103.222826 L10.5217391,103.222826 L10.5217391,113.744565 L0,113.744565 Z M31.5652174,103.222826 L31.5652174,92.701087 L47.3478261,92.701087 L47.3478261,103.222826 L31.5652174,103.222826 Z M52.6086957,140.048913 L52.6086957,119.005435 L63.1304348,119.005435 L63.1304348,129.527174 L99.9565217,129.527174 L99.9565217,140.048913 L52.6086957,140.048913 Z M52.6086957,113.744565 L52.6086957,92.701087 L63.1304348,92.701087 L63.1304348,113.744565 L52.6086957,113.744565 Z M105.217391,140.048913 L105.217391,129.527174 L115.73913,129.527174 L115.73913,140.048913 L105.217391,140.048913 Z M105.217391,108.483696 L105.217391,92.701087 L115.73913,92.701087 L115.73913,108.483696 L105.217391,108.483696 Z M142.043478,140.048913 L142.043478,124.266304 L105.217391,124.266304 L105.217391,113.744565 L142.043478,113.744565 L142.043478,105.853261 L121,105.853261 L121,92.701087 L152.565217,92.701087 L152.565217,140.048913 L142.043478,140.048913 Z M173.608696,140.048913 L173.608696,129.527174 L189.391304,129.527174 L189.391304,140.048913 L173.608696,140.048913 Z M173.608696,124.266304 L173.608696,119.005435 L157.826087,103.222826 L157.826087,92.701087 L168.347826,92.701087 L168.347826,103.222826 L173.608696,108.483696 L178.869565,108.483696 L178.869565,113.744565 L184.130435,113.744565 L184.130435,108.483696 L189.391304,108.483696 L194.652174,103.222826 L194.652174,92.701087 L205.173913,92.701087 L205.173913,103.222826 L189.391304,119.005435 L189.391304,124.266304 L173.608696,124.266304 Z M226.217391,140.048913 L226.217391,124.266304 L242,124.266304 L242,140.048913 L226.217391,140.048913 Z M226.217391,113.744565 L226.217391,103.222826 L210.434783,103.222826 L210.434783,92.701087 L257.782609,92.701087 L257.782609,103.222826 L242,103.222826 L242,113.744565 L226.217391,113.744565 Z M263.043478,140.048913 L263.043478,119.005435 L273.565217,119.005435 L273.565217,129.527174 L284.086957,129.527174 L284.086957,140.048913 L263.043478,140.048913 Z M289.347826,140.048913 L289.347826,129.527174 L299.869565,129.527174 L299.869565,119.005435 L310.391304,119.005435 L310.391304,140.048913 L289.347826,140.048913 Z M263.043478,113.744565 L263.043478,92.701087 L310.391304,92.701087 L310.391304,113.744565 L299.869565,113.744565 L299.869565,103.222826 L289.347826,103.222826 L289.347826,97.9619565 L284.086957,97.9619565 L284.086957,103.222826 L273.565217,103.222826 L273.565217,113.744565 L263.043478,113.744565 Z M315.652174,140.048913 L315.652174,124.266304 L326.173913,124.266304 L326.173913,140.048913 L315.652174,140.048913 Z M352.478261,140.048913 L326.173913,113.744565 L315.652174,113.744565 L315.652174,92.701087 L326.173913,92.701087 L352.478261,119.005435 L363,119.005435 L363,140.048913 L352.478261,140.048913 Z M352.478261,108.483696 L352.478261,92.701087 L363,92.701087 L363,108.483696 L352.478261,108.483696 Z" id="CLAYTON" fill="#D8D8D8" sketch:type="MSShapeGroup"></path>
        </g>
    </g>
</svg>
