<?xml version="1.0" encoding="UTF-8" standalone="no"?>
<svg width="1129px" height="398px" viewBox="0 0 1129 398" version="1.1" xmlns="http://www.w3.org/2000/svg" xmlns:xlink="http://www.w3.org/1999/xlink" xmlns:sketch="http://www.bohemiancoding.com/sketch/ns">
    <!-- Generator: Sketch 3.4.2 (15855) - http://www.bohemiancoding.com/sketch -->
    <title>Monotone-Banner</title>
    <desc>Created with Sketch.</desc>
    <defs></defs>
    <g id="Page-1" stroke="none" stroke-width="1" fill="none" fill-rule="evenodd" sketch:type="MSPage">
        <g id="Monotone-Banner" sketch:type="MSArtboardGroup" fill="#000000">
            <g id="M-Copy-2-+-CLAYTON-Copy-2-+-ARK-Copy" sketch:type="MSLayerGroup" transform="translate(51.000000, 25.000000)">
                <path d="M0,322 L0,250.444444 L71.5555556,250.444444 L71.5555556,322 L0,322 Z M250.444444,322 L250.444444,250.444444 L322,250.444444 L322,322 L250.444444,322 Z M0,214.666667 L0,0 L71.5555556,0 L71.5555556,35.7777778 L161,125.222222 L250.444444,35.7777778 L250.444444,0 L322,0 L322,214.666667 L250.444444,214.666667 L250.444444,107.333333 L178.888889,178.888889 L143.111111,178.888889 L71.5555556,107.333333 L71.5555556,214.666667 L0,214.666667 Z" id="M-Copy-2" sketch:type="MSShapeGroup"></path>
                <path d="M419.391304,86 L419.391304,66.8888889 L448.086957,66.8888889 L448.086957,86 L419.391304,86 Z M362,86 L362,57.3333333 L381.130435,57.3333333 L381.130435,66.8888889 L409.826087,66.8888889 L409.826087,86 L362,86 Z M362,38.2222222 L362,0 L409.826087,0 L409.826087,19.1111111 L381.130435,19.1111111 L381.130435,38.2222222 L362,38.2222222 Z M419.391304,19.1111111 L419.391304,0 L448.086957,0 L448.086957,19.1111111 L419.391304,19.1111111 Z M457.652174,86 L457.652174,47.7777778 L476.782609,47.7777778 L476.782609,66.8888889 L543.73913,66.8888889 L543.73913,86 L457.652174,86 Z M457.652174,38.2222222 L457.652174,0 L476.782609,0 L476.782609,38.2222222 L457.652174,38.2222222 Z M553.304348,86 L553.304348,66.8888889 L572.434783,66.8888889 L572.434783,86 L553.304348,86 Z M553.304348,28.6666667 L553.304348,0 L572.434783,0 L572.434783,28.6666667 L553.304348,28.6666667 Z M620.26087,86 L620.26087,57.3333333 L553.304348,57.3333333 L553.304348,38.2222222 L620.26087,38.2222222 L620.26087,23.8888889 L582,23.8888889 L582,0 L639.391304,0 L639.391304,86 L620.26087,86 Z M677.652174,86 L677.652174,66.8888889 L706.347826,66.8888889 L706.347826,86 L677.652174,86 Z M677.652174,57.3333333 L677.652174,47.7777778 L648.956522,19.1111111 L648.956522,0 L668.086957,0 L668.086957,19.1111111 L677.652174,28.6666667 L687.217391,28.6666667 L687.217391,38.2222222 L696.782609,38.2222222 L696.782609,28.6666667 L706.347826,28.6666667 L715.913043,19.1111111 L715.913043,0 L735.043478,0 L735.043478,19.1111111 L706.347826,47.7777778 L706.347826,57.3333333 L677.652174,57.3333333 Z M773.304348,86 L773.304348,57.3333333 L802,57.3333333 L802,86 L773.304348,86 Z M773.304348,38.2222222 L773.304348,19.1111111 L744.608696,19.1111111 L744.608696,0 L830.695652,0 L830.695652,19.1111111 L802,19.1111111 L802,38.2222222 L773.304348,38.2222222 Z M840.26087,86 L840.26087,47.7777778 L859.391304,47.7777778 L859.391304,66.8888889 L878.521739,66.8888889 L878.521739,86 L840.26087,86 Z M888.086957,86 L888.086957,66.8888889 L907.217391,66.8888889 L907.217391,47.7777778 L926.347826,47.7777778 L926.347826,86 L888.086957,86 Z M840.26087,38.2222222 L840.26087,0 L926.347826,0 L926.347826,38.2222222 L907.217391,38.2222222 L907.217391,19.1111111 L888.086957,19.1111111 L888.086957,9.55555556 L878.521739,9.55555556 L878.521739,19.1111111 L859.391304,19.1111111 L859.391304,38.2222222 L840.26087,38.2222222 Z M935.913043,86 L935.913043,57.3333333 L955.043478,57.3333333 L955.043478,86 L935.913043,86 Z M1002.86957,86 L955.043478,38.2222222 L935.913043,38.2222222 L935.913043,0 L955.043478,0 L1002.86957,47.7777778 L1022,47.7777778 L1022,86 L1002.86957,86 Z M1002.86957,28.6666667 L1002.86957,0 L1022,0 L1022,28.6666667 L1002.86957,28.6666667 Z" id="CLAYTON-Copy-2" sketch:type="MSShapeGroup"></path>
                <path d="M362,321 L362,276.625 L406.375,276.625 L406.375,321 L362,321 Z M362,187.875 L362,121.3125 L406.375,121.3125 L406.375,187.875 L362,187.875 Z M517.3125,321 L517.3125,254.4375 L362,254.4375 L362,210.0625 L517.3125,210.0625 L517.3125,176.78125 L428.5625,176.78125 L428.5625,121.3125 L561.6875,121.3125 L561.6875,321 L517.3125,321 Z M739.1875,321 L739.1875,276.625 L783.5625,276.625 L783.5625,321 L739.1875,321 Z M583.875,321 L583.875,210.0625 L628.25,210.0625 L628.25,321 L583.875,321 Z M650.4375,254.4375 L650.4375,210.0625 L761.375,210.0625 L783.5625,232.25 L783.5625,254.4375 L650.4375,254.4375 Z M583.875,187.875 L583.875,121.3125 L628.25,121.3125 L628.25,187.875 L583.875,187.875 Z M739.1875,187.875 L739.1875,165.6875 L650.4375,165.6875 L650.4375,121.3125 L783.5625,121.3125 L783.5625,187.875 L739.1875,187.875 Z M805.75,321 L805.75,121.3125 L850.125,121.3125 L850.125,321 L805.75,321 Z M961.0625,321 L916.6875,276.625 L894.5,276.625 L894.5,187.875 L961.0625,121.3125 L1005.4375,121.3125 L1005.4375,143.5 L938.875,210.0625 L938.875,232.25 L1005.4375,298.8125 L1005.4375,321 L961.0625,321 Z" id="ARK" sketch:type="MSShapeGroup"></path>
            </g>
        </g>
    </g>
</svg>